<svg viewBox="0 0 200 43" fill="none" xmlns="http://www.w3.org/2000/svg"><path d="M74.105 8.924h1.482c-.045-1.63-1.487-2.814-3.555-2.814-2.043 0-3.61 1.168-3.61 2.923 0 1.417 1.015 2.247 2.65 2.69l1.204.328c1.089.288 1.929.646 1.929 1.551 0 .994-.95 1.65-2.257 1.65-1.183 0-2.168-.526-2.257-1.635h-1.542c.1 1.845 1.527 2.983 3.809 2.983 2.391 0 3.768-1.258 3.768-2.983 0-1.834-1.635-2.545-2.928-2.864l-.994-.258c-.796-.204-1.855-.577-1.85-1.551 0-.865.79-1.507 2.043-1.507 1.169 0 1.999.547 2.108 1.487zM77.443 16.431h1.486V8.795h-1.486v7.636zm.75-8.815c.512 0 .94-.397.94-.885 0-.487-.428-.89-.94-.89-.517 0-.94.403-.94.89s.423.886.94.886zM84.13 19.439c1.945 0 3.446-.89 3.446-2.839V8.795h-1.457v1.238h-.11c-.263-.473-.79-1.338-2.211-1.338-1.845 0-3.202 1.457-3.202 3.888 0 2.436 1.387 3.734 3.192 3.734 1.402 0 1.943-.79 2.212-1.278h.094v1.501c0 1.179-.82 1.7-1.949 1.7-1.237 0-1.72-.62-1.983-1.043l-1.278.527c.403.92 1.422 1.715 3.247 1.715zm-.014-4.355c-1.328 0-2.019-1.02-2.019-2.52 0-1.467.676-2.606 2.019-2.606 1.297 0 1.993 1.059 1.993 2.605 0 1.576-.71 2.52-1.993 2.52zM91.056 11.897c0-1.218.746-1.914 1.78-1.914 1.01 0 1.62.661 1.62 1.77v4.678h1.487v-4.857c0-1.89-1.039-2.879-2.6-2.879-1.149 0-1.9.532-2.252 1.343h-.095V8.795H89.57v7.636h1.486v-4.534zM101.761 16.431h1.536v-4.44h5.076v4.44h1.542V6.249h-1.542v4.425h-5.076V6.249h-1.536v10.182zM115.324 16.585c1.665 0 2.843-.82 3.181-2.063l-1.407-.254c-.268.721-.914 1.09-1.759 1.09-1.273 0-2.128-.826-2.168-2.298h5.429v-.527c0-2.759-1.651-3.838-3.381-3.838-2.128 0-3.53 1.621-3.53 3.968 0 2.371 1.382 3.922 3.635 3.922zm-2.148-4.638c.06-1.084.845-2.024 2.053-2.024 1.154 0 1.909.855 1.914 2.024h-3.967zM120.249 16.431h1.487v-4.663c0-1 .77-1.72 1.824-1.72.309 0 .657.054.776.089V8.715a6.07 6.07 0 00-.632-.035c-.894 0-1.66.507-1.938 1.328h-.08V8.795h-1.437v7.636zM128.64 16.585c1.665 0 2.844-.82 3.182-2.063l-1.407-.254c-.269.721-.915 1.09-1.76 1.09-1.273 0-2.128-.826-2.168-2.298h5.429v-.527c0-2.759-1.65-3.838-3.38-3.838-2.128 0-3.53 1.621-3.53 3.968 0 2.371 1.382 3.922 3.634 3.922zm-2.148-4.638c.06-1.084.845-2.024 2.054-2.024 1.153 0 1.909.855 1.914 2.024h-3.968z" fill="#8894AB"/><path d="M1 38.602c11.246 3.197 22.182-.99 31.508-7.172 4.932-3.27 9.826-7.183 12.825-12.341 1.195-2.057 2.656-5.626-1.106-5.658-4.093-.034-7.14 3.662-8.668 7.022-2.19 4.819-2.268 10.526.407 15.17 2.531 4.395 6.778 6.474 11.845 5.62 5.293-.893 9.92-4.508 13.765-7.986a40.714 40.714 0 003.966-4.093c.142-.17.642-1.006.966-1.064.12-.021.298 3.643.33 3.843.288 1.79 1.191 3.806 3.305 3.867 2.69.078 4.94-2.172 6.75-3.83.61-.559 2.55-3.241 3.583-3.241.425 0 1.249 2.143 1.437 2.428 2.484 3.764 6.132 2.401 8.96-.238.52-.485 3.305-4.367 4.436-3.667.911.563 1.313 1.893 1.78 2.778.76 1.441 1.722 2.468 3.33 3.004 3.493 1.166 7.261-2.102 10.803-2.102 1.033 0 1.561.568 2.11 1.351.749 1.068 1.521 1.813 2.873 2.103 4.188.898 7.617-3.077 11.667-2.728 1.181.101 2.063 1.292 2.949 1.927 1.788 1.28 3.938 2.167 6.127 2.478 3.509.499 7.027-.162 10.447-.9 5.905-1.277 11.752-2.799 17.667-4.031" stroke="#DFE3ED" stroke-width="1.5" stroke-linecap="round" stroke-linejoin="round"/><g clip-path="url(#clip0)" fill="#DFE3ED"><path d="M196.514 17.657L184.491 3.13a.665.665 0 00-.938-.089l-2.905 2.405a.666.666 0 00-.089.938l12.023 14.526a.664.664 0 00.451.239.666.666 0 00.488-.15l2.905-2.405a.666.666 0 00.088-.938zM181.437 9.536l-10.582 2.869a.666.666 0 00-.472.48l-4.228 16.795 7.82-6.472a3.34 3.34 0 01.815-4.137 3.337 3.337 0 014.693.442 3.338 3.338 0 01-.442 4.694 3.322 3.322 0 01-2.438.75 3.335 3.335 0 01-1.778-.721l-7.82 6.471 17.289-1.014a.668.668 0 00.561-.374l4.796-9.859-8.214-9.924z"/></g><defs><clipPath id="clip0"><path transform="rotate(5.386 167.573 0)" fill="#fff" d="M167.573 0h32v32h-32z"/></clipPath></defs></svg>